{
  "accessors": [
    {
      "bufferView": 2,
      "componentType": 5126,
      "count": 144,
      "max": [
        1.7000000476837158,
        1.227704644203186,
        0.050269123166799545
      ],
      "min": [
        -1.7000000476837158,
        -1.2831668853759766,
        -0.050269123166799545
      ],
      "type": "VEC3"
    },
    {
      "bufferView": 2,
      "byteOffset": 1728,
      "componentType": 5126,
      "count": 144,
      "max": [
        0.9816343188285828,
        0.9807879328727722,
        1.0
      ],
      "min": [
        -0.9816343188285828,
        -0.9799227118492126,
        -1.0
      ],
      "type": "VEC3"
    },
    {
      "bufferView": 1,
      "componentType": 5126,
      "count": 144,
      "max": [
        0.9995523691177368,
        0.940153181552887
      ],
      "min": [
        0.0004476308822631836,
        0.0004476308822631836
      ],
      "type": "VEC2"
    },
    {
      "bufferView": 0,
      "componentType": 5125,
      "count": 276,
      "type": "SCALAR"
    },
    {
      "bufferView": 2,
      "byteOffset": 3456,
      "componentType": 5126,
      "count": 2614,
      "max": [
        1.7581584453582764,
        1.2738490104675293,
        0.08151864260435104
      ],
      "min": [
        -1.7581584453582764,
        -1.3427906036376953,
        -0.08794040977954865
      ],
      "type": "VEC3"
    },
    {
      "bufferView": 2,
      "byteOffset": 34824,
      "componentType": 5126,
      "count": 2614,
      "max": [
        1.0,
        1.0,
        1.0
      ],
      "min": [
        -1.0,
        -1.0,
        -1.0
      ],
      "type": "VEC3"
    },
    {
      "bufferView": 1,
      "byteOffset": 1152,
      "componentType": 5126,
      "count": 2614,
      "max": [
        0.9990079402923584,
        0.9691957235336304
      ],
      "min": [
        0.0009919404983520508,
        0.0009919404983520508
      ],
      "type": "VEC2"
    },
    {
      "bufferView": 0,
      "byteOffset": 1104,
      "componentType": 5125,
      "count": 6396,
      "type": "SCALAR"
    },
    {
      "bufferView": 2,
      "byteOffset": 66192,
      "componentType": 5126,
      "count": 1044,
      "max": [
        1.4837433099746704,
        0.9552140235900879,
        -0.0328606478869915
      ],
      "min": [
        -1.4837433099746704,
        -1.0182745456695557,
        -0.0644930750131607
      ],
      "type": "VEC3"
    },
    {
      "bufferView": 2,
      "byteOffset": 78720,
      "componentType": 5126,
      "count": 1044,
      "max": [
        0.9991357326507568,
        0.9992151260375977,
        -0.0
      ],
      "min": [
        -0.9991357326507568,
        -1.0,
        -1.0
      ],
      "type": "VEC3"
    },
    {
      "bufferView": 1,
      "byteOffset": 22064,
      "componentType": 5126,
      "count": 1044,
      "max": [
        0.9910383820533752,
        0.9989864826202393
      ],
      "min": [
        0.0010133683681488037,
        0.001013338565826416
      ],
      "type": "VEC2"
    },
    {
      "bufferView": 0,
      "byteOffset": 26688,
      "componentType": 5125,
      "count": 2826,
      "type": "SCALAR"
    },
    {
      "bufferView": 2,
      "byteOffset": 91248,
      "componentType": 5126,
      "count": 200,
      "max": [
        1.5799999237060547,
        1.090000033378601,
        0.06651769578456879
      ],
      "min": [
        -1.5799999237060547,
        -1.159999966621399,
        0.03402052819728851
      ],
      "type": "VEC3"
    },
    {
      "bufferView": 2,
      "byteOffset": 93648,
      "componentType": 5126,
      "count": 200,
      "max": [
        0.9951868653297424,
        0.9951868653297424,
        1.0
      ],
      "min": [
        -0.9951868653297424,
        -0.9951868653297424,
        -1.0
      ],
      "type": "VEC3"
    },
    {
      "bufferView": 1,
      "byteOffset": 30416,
      "componentType": 5126,
      "count": 200,
      "max": [
        0.9995772242546082,
        0.9614232778549194
      ],
      "min": [
        0.0004228353500366211,
        0.0004228353500366211
      ],
      "type": "VEC2"
    },
    {
      "bufferView": 0,
      "byteOffset": 37992,
      "componentType": 5125,
      "count": 468,
      "type": "SCALAR"
    },
    {
      "bufferView": 2,
      "byteOffset": 96048,
      "componentType": 5126,
      "count": 188,
      "max": [
        0.5708209872245789,
        0.013333244249224663,
        0.2719978988170624
      ],
      "min": [
        -0.7245903611183167,
        -0.026666775345802307,
        -0.25858208537101746
      ],
      "type": "VEC3"
    },
    {
      "bufferView": 2,
      "byteOffset": 98304,
      "componentType": 5126,
      "count": 188,
      "max": [
        1.0,
        1.0,
        1.0
      ],
      "min": [
        -1.0,
        0.0,
        -1.0
      ],
      "type": "VEC3"
    },
    {
      "bufferView": 1,
      "byteOffset": 32016,
      "componentType": 5126,
      "count": 188,
      "max": [
        0.9708779454231262,
        0.9989545941352844
      ],
      "min": [
        0.0010454505681991577,
        0.0010454356670379639
      ],
      "type": "VEC2"
    },
    {
      "bufferView": 0,
      "byteOffset": 39864,
      "componentType": 5125,
      "count": 414,
      "type": "SCALAR"
    }
  ],
  "asset": {
    "extras": {
      "author": "TatariN_174 (https://sketchfab.com/TatariN_174)",
      "license": "CC-BY-NC-4.0 (http://creativecommons.org/licenses/by-nc/4.0/)",
      "source": "https://sketchfab.com/3d-models/the-tablet-eb132567326042439625b91d17429758",
      "title": "The tablet"
    },
    "generator": "Sketchfab-12.68.0",
    "version": "2.0"
  },
  "bufferViews": [
    {
      "buffer": 0,
      "byteLength": 41520,
      "name": "floatBufferViews",
      "target": 34963
    },
    {
      "buffer": 0,
      "byteLength": 33520,
      "byteOffset": 41520,
      "byteStride": 8,
      "name": "floatBufferViews",
      "target": 34962
    },
    {
      "buffer": 0,
      "byteLength": 100560,
      "byteOffset": 75040,
      "byteStride": 12,
      "name": "floatBufferViews",
      "target": 34962
    }
  ],
  "buffers": [
    {
      "byteLength": 175600,
      "uri": "scene.bin"
    }
  ],
  "materials": [
    {
      "doubleSided": true,
      "name": "korpus.002",
      "pbrMetallicRoughness": {
        "baseColorFactor": [
          0.180534,
          0.184911,
          0.199652,
          1.0
        ],
        "metallicFactor": 0.0,
        "roughnessFactor": 0.433333
      }
    },
    {
      "doubleSided": true,
      "name": "korpus2",
      "pbrMetallicRoughness": {
        "baseColorFactor": [
          0.00955295,
          0.00955295,
          0.00955295,
          1.0
        ],
        "metallicFactor": 0.0,
        "roughnessFactor": 0.7
      }
    },
    {
      "doubleSided": true,
      "name": "zadsten",
      "pbrMetallicRoughness": {
        "baseColorFactor": [
          0.0104361,
          0.0104361,
          0.0104361,
          1.0
        ],
        "metallicFactor": 0.0,
        "roughnessFactor": 0.7
      }
    },
    {
      "doubleSided": true,
      "name": "ekran",
      "pbrMetallicRoughness": {
        "baseColorFactor": [
          0.0,
          0.0,
          0.0,
          1.0
        ],
        "metallicFactor": 0.0,
        "roughnessFactor": 0.0272727
      }
    },
    {
      "doubleSided": true,
      "name": "material",
      "pbrMetallicRoughness": {
        "baseColorFactor": [
          0.13918,
          0.1273,
          0.0187816,
          1.0
        ],
        "metallicFactor": 0.0,
        "roughnessFactor": 0.0
      }
    }
  ],
  "meshes": [
    {
      "name": "Object_0",
      "primitives": [
        {
          "attributes": {
            "NORMAL": 1,
            "POSITION": 0,
            "TEXCOORD_0": 2
          },
          "indices": 3,
          "material": 0,
          "mode": 4
        }
      ]
    },
    {
      "name": "Object_1",
      "primitives": [
        {
          "attributes": {
            "NORMAL": 5,
            "POSITION": 4,
            "TEXCOORD_0": 6
          },
          "indices": 7,
          "material": 1,
          "mode": 4
        }
      ]
    },
    {
      "name": "Object_2",
      "primitives": [
        {
          "attributes": {
            "NORMAL": 9,
            "POSITION": 8,
            "TEXCOORD_0": 10
          },
          "indices": 11,
          "material": 2,
          "mode": 4
        }
      ]
    },
    {
      "name": "Object_3",
      "primitives": [
        {
          "attributes": {
            "NORMAL": 13,
            "POSITION": 12,
            "TEXCOORD_0": 14
          },
          "indices": 15,
          "material": 3,
          "mode": 4
        }
      ]
    },
    {
      "name": "Object_4",
      "primitives": [
        {
          "attributes": {
            "NORMAL": 17,
            "POSITION": 16,
            "TEXCOORD_0": 18
          },
          "indices": 19,
          "material": 4,
          "mode": 4
        }
      ]
    }
  ],
  "nodes": [
    {
      "children": [
        1
      ],
      "matrix": [
        1.0,
        0.0,
        0.0,
        0.0,
        0.0,
        2.220446049250313e-16,
        -1.0,
        0.0,
        0.0,
        1.0,
        2.220446049250313e-16,
        0.0,
        0.0,
        0.0,
        0.0,
        1.0
      ],
      "name": "Sketchfab_model"
    },
    {
      "children": [
        2
      ],
      "name": "root"
    },
    {
      "children": [
        3,
        5,
        7,
        9,
        11
      ],
      "matrix": [
        1.0,
        0.0,
        0.0,
        0.0,
        0.0,
        2.220446049250313e-16,
        1.0,
        0.0,
        0.0,
        -1.0,
        2.220446049250313e-16,
        0.0,
        0.0,
        0.0,
        0.0,
        1.0
      ],
      "name": "GLTF_SceneRootNode"
    },
    {
      "children": [
        4
      ],
      "name": "korpus_0"
    },
    {
      "mesh": 0,
      "name": "Object_4"
    },
    {
      "children": [
        6
      ],
      "name": "korpus2_1"
    },
    {
      "mesh": 1,
      "name": "Object_6"
    },
    {
      "children": [
        8
      ],
      "name": "zadsten_2"
    },
    {
      "mesh": 2,
      "name": "Object_8"
    },
    {
      "children": [
        10
      ],
      "matrix": [
        1.0,
        0.0,
        0.0,
        0.0,
        0.0,
        1.0,
        0.0,
        0.0,
        0.0,
        0.0,
        1.0,
        0.0,
        0.0,
        0.0,
        -0.004221990704536438,
        1.0
      ],
      "name": "ekran_3"
    },
    {
      "mesh": 3,
      "name": "Object_10"
    },
    {
      "children": [
        12
      ],
      "matrix": [
        -0.5820246338844144,
        -9.482385542077442e-08,
        -9.482385542077442e-08,
        0.0,
        9.482385542077442e-08,
        7.754125793250254e-15,
        -0.5820246338844222,
        0.0,
        9.482385542077442e-08,
        -0.5820246338844222,
        7.754125793250254e-15,
        0.0,
        0.0,
        0.0,
        -0.06676407158374786,
        1.0
      ],
      "name": "Text_4"
    },
    {
      "mesh": 4,
      "name": "Object_12"
    }
  ],
  "scene": 0,
  "scenes": [
    {
      "name": "Sketchfab_Scene",
      "nodes": [
        0
      ]
    }
  ]
}
